<?xml version="1.0" encoding="iso-8859-1"?>
<!-- Generator: Adobe Illustrator 19.0.0, SVG Export Plug-In . SVG Version: 6.00 Build 0)  -->
<svg version="1.1" id="Capa_1" xmlns="http://www.w3.org/2000/svg" xmlns:xlink="http://www.w3.org/1999/xlink" x="0px" y="0px"
	 viewBox="0 0 512 512" style="enable-background:new 0 0 512 512;" xml:space="preserve" >
<g transform="translate(1 1)">
	<g>
		<path d="M276.3,42.756V20.3C276.3,8.6,266.8-1,255-1s-21.3,9.6-21.3,21.3v22.456C125.901,53.445,41.7,144.389,41.7,255
			c0,11.7,9.5,21.3,21.3,21.3h3.7c9,0,17.1-5.7,20.1-14.2c6.1-17,21.9-28.5,40-28.5c18.1,0,34,11.5,40,28.5
			c3,8.5,11.1,14.2,20.1,14.2h7.9c9,0,17.1-5.7,20.1-14.2c3.516-9.798,10.257-17.762,18.8-22.757V447c0,11.8-9.5,21.3-21.3,21.3
			c-11.8,0-21.4-9.5-21.4-21.3s-9.6-21.3-21.3-21.3s-21.3,9.6-21.3,21.3c0,35.4,28.6,64,64,64c35.4,0,64-28.6,64-64V239.499
			c8.433,5.005,15.078,12.906,18.5,22.601c3,8.5,11.1,14.2,20.1,14.2h7.9c9,0,17.1-5.7,20.1-14.2c6.1-17,21.9-28.5,40-28.5
			c18.1,0,34,11.5,40,28.5c3,8.5,11.1,14.2,20.1,14.2h3.9c11.7,0,21.3-9.5,21.3-21.3C468.3,144.389,384.099,53.445,276.3,42.756z
			 M383,191c-25.2,0-48.2,11.1-64,29.2c-15.8-18.1-38.7-29.2-63.9-29.2s-48.2,11.1-64,29.2c-0.017,0.02-0.033,0.04-0.05,0.06
			c-0.017-0.02-0.033-0.04-0.05-0.06c-15.8-18.1-38.8-29.2-64-29.2c-11.6,0-22.7,2.3-32.8,6.6c23.6-66,86.6-113.2,160.8-113.2
			s137.2,47.2,160.8,113.2C405.6,193.3,394.5,191,383,191z"/>
	</g>
</g>
<g>
</g>
<g>
</g>
<g>
</g>
<g>
</g>
<g>
</g>
<g>
</g>
<g>
</g>
<g>
</g>
<g>
</g>
<g>
</g>
<g>
</g>
<g>
</g>
<g>
</g>
<g>
</g>
<g>
</g>
</svg>
